<svg xmlns="http://www.w3.org/2000/svg" viewBox="0 0 512 512" width="512" height="512" role="img" aria-label="Poseidon"><defs><radialGradient id="ocean" cx="50%" cy="38%" r="75%"><stop offset="0%" stop-color="#2f88ba"/><stop offset="100%" stop-color="#081f34"/></radialGradient></defs><rect x="0" y="0" width="512" height="512" rx="90" ry="90" fill="url(#ocean)"/><g transform="translate(-223.381,-63.268) scale(0.239691)" fill="#ffffff"><path fill="#ffffff" d="M1956.424,711.077c18.308-49.643,29.991-101.367,43.818-152.322 c14.083,48.235,24.742,97.622,41.897,144.993c18.82,57.933,45.514,113.242,79.282,163.909c8.962,15.171,20.197,28.999,28.006,44.81 c-28.775-6.978-55.661-19.428-83.539-29.031c-9.474,12.739-11.747,28.999-15.043,44.106 c-10.146,49.707-5.377,100.631-2.401,150.818c3.425,39.369,5.729,78.802,9.186,118.171c2.625,34.664,0.896,71.76,19.108,102.839 c17.796,32.967,54.924,55.981,92.917,52.044c43.754-2.945,81.394-46.763,73.745-90.708c-5.665-32.807-10.178-65.839-12.579-99.03 c-1.632-39.625,3.841-79.122,12.803-117.626c-18.148,4.001-34.472,12.995-50.763,21.509 c14.307-61.678,41.994-120.731,83.827-168.55c33.031-37.609,71.504-72.048,117.594-92.661 c-29.671,82.643-32.231,172.647-19.3,258.842c-21.829-23.077-35.336-52.396-49.835-80.306 c-10.722,22.661-12.003,48.267-12.067,72.912c0.48,55.565,12.835,110.361,30.279,162.853c8.45,25.734,21.221,49.707,32.871,74.001 c-4.801,19.108-14.499,36.744-25.286,53.068c-7.874,12.515-20.709,20.26-32.327,28.774c-18.98,13.859-38.313,27.622-54.252,45.066 c-13.699,14.787-24.165,32.167-34.376,49.451c-39.913-7.586-80.722-5.409-121.019-9.218c-5.121-0.32-10.274-1.024-15.331-0.256 c-21.413,9.154-42.026,26.246-45.13,50.731c18.5-2.113,40.361-5.633,55.18,8.706c18.948,16.26,16.932,48.523-2.656,63.438 c-14.371,12.643-35.08,9.89-52.076,5.025c-0.8,171.751-0.384,343.533-0.448,515.284c-32.263,2.368-64.654,2.4-96.886-0.032 c0.416-171.367,0.128-342.733,0.224-514.1c-17.924,4.673-39.497,5.889-53.772-8.13c-19.268-16.26-17.188-49.099,2.689-63.982 c14.467-12.067,34.184-7.618,51.212-5.729c-4.513-23.653-23.173-41.865-44.586-51.244c-4.417-0.48-8.802-0.48-13.155,0 c-41.353,3.713-83.123,2.177-124.092,9.698c-9.506-15.139-17.316-31.559-29.543-44.81c-20.517-23.557-46.667-40.937-71.728-59.117 c-18.308-12.611-27.75-33.608-37.064-53.004c-2.753-7.842-8.994-16.484-4.769-24.902c31.975-62.958,52.076-132.062,58.669-202.382 c2.657-34.248,1.568-69.424-9.666-102.231c-13.827,23.909-25.126,49.451-41.641,71.728c-2.304,3.201-5.313,5.729-8.418,8.098 c15.107-85.811,8.642-174.919-17.988-257.85c48.427,22.949,89.46,59.277,122.684,100.983 c37.385,46.026,63.662,100.823,76.209,158.788c-16.036-7.874-32.071-16.516-49.643-20.357c-1.152,4.097,1.344,8.194,1.984,12.227 c17.796,64.334,11.203,132.318-0.928,197.068c-3.233,16.324-2.305,33.736,5.377,48.779c13.923,31.495,48.587,51.596,82.803,49.387 c25.286-0.512,48.331-14.627,64.751-33.127c16.612-19.813,26.47-45.066,28.582-70.768c3.873-36.04,5.153-72.272,8.482-108.344 c3.297-58.733,9.986-117.531,6.562-176.456c-3.585-26.886-5.985-54.956-18.372-79.538c-28.55,8.93-55.693,21.957-85.107,28.294 c4.001-7.938,9.634-14.851,14.883-22.021C1904.316,834.625,1934.819,774.387,1956.424,711.077z"/><path fill="#ffffff" d="M1709.36,684.991c24.101-8.61,48.107-19.428,73.745-22.085 c-29.703,10.21-59.661,20.197-87.86,34.248c-111.481,54.156-205.422,141.664-271.773,246.007 c-62.414,98.294-95.638,216.721-83.699,333.259c8.994,110.969,58.605,220.05,142.752,294.082 c51.115,47.723,116.218,80.402,185.258,91.765c58.573,10.658,121.307,3.681,173.607-25.798 c12.035-5.985,22.309-14.819,34.088-21.253c-14.179,25.766-36.456,45.706-59.213,63.758 c-42.986,34.76-94.165,59.661-148.417,70.608c-72.592,14.275-148.93,0.768-215.377-30.407 c-48.491-21.669-89.044-57.709-122.94-97.91c-20.453-44.81-39.753-90.516-50.315-138.783 c-17.764-73.585-22.917-150.306-14.019-225.523c15.588-134.526,73.553-262.939,159.652-366.995 c33.64-40.777,71.344-78.386,113.69-110.105C1590.838,740.748,1647.682,707.012,1709.36,684.991z"/><path fill="#ffffff" d="M2217.315,662.842c4.641,0.32,9.378,0.736,13.923,1.984 c54.924,15.556,107.672,38.441,156.995,67.087c99.286,55.308,183.433,136.895,243.511,233.173 c35.464,58.445,65.071,120.891,82.867,187.05c44.01,154.339,27.526,325.001-44.714,468.266 c-11.459,13.827-23.877,27.046-36.488,39.849c-50.699,49.483-118.555,78.77-187.722,90.901 c-103.159,17.86-210.959-21.637-285.76-93.109c-13.411-12.195-25.094-26.246-34.056-41.993c10.37,4.929,18.724,13.155,29.031,18.34 c39.817,24.261,87.316,32.775,133.406,32.519c57.261-1.696,113.946-17.924,163.333-46.987 c51.596-28.583,93.781-71.536,128.605-118.651c66.287-95.061,93.589-215.377,79.282-329.994 c-15.364-126.749-77.938-245.079-166.053-336.364c-56.621-60.046-125.98-106.904-199.949-142.88 C2268.878,680.382,2242.856,672.156,2217.315,662.842z"/><path fill="#ffffff" d="M1879.479,1674.814c13.283-14.019,24.486-29.799,37.352-44.17 c0.576,156.259,0.096,312.518,0.192,468.777c-124.668-13.987-247.128-56.717-349.039-130.685 c-101.655-71.76-184.234-170.374-236.373-283.424c10.658,6.465,18.436,16.452,28.422,23.781 c81.33,64.815,188.202,94.933,291.522,86.323c16.836,11.203,33.672,23.109,53.228,29.447c45.482,17.86,95.51,10.178,142.336,2.849 c-42.986-8.194-87.636-21.189-120.955-50.795C1784.513,1755.888,1837.773,1720.776,1879.479,1674.814z"/><path fill="#ffffff" d="M2084.453,1629.46c7.074,6.594,11.523,15.299,17.508,22.789 c43.754,57.229,104.856,100.247,172.487,124.604c-34.024,31.143-80.69,41.897-124.316,51.948 c40.809,2.881,82.227,11.555,122.94,2.657c27.494-6.594,55.084-16.996,76.401-36.2c56.685,4.001,114.234-1.728,168.07-20.357 c56.333-17.956,107.16-50.379,151.042-89.556c-42.826,93.685-107.288,176.904-185.066,244.215 c-112.121,95.318-253.593,154.691-399.834,170.022c-0.544-96.118-0.032-192.203-0.224-288.289 C2083.749,1750.703,2082.884,1690.049,2084.453,1629.46z"/></g></svg>